<?xml version="1.0" encoding="UTF-8" standalone="no"?>
<!DOCTYPE svg PUBLIC "-//W3C//DTD SVG 1.1//EN"
 "http://www.w3.org/Graphics/SVG/1.1/DTD/svg11.dtd">
<!-- Generated by graphviz version 7.0.5 (20221223.1930)
 -->
<!-- Title: dependency&#45;cruiser output Pages: 1 -->
<svg width="981pt" height="596pt"
 viewBox="0.00 0.00 980.50 596.00" xmlns="http://www.w3.org/2000/svg" xmlns:xlink="http://www.w3.org/1999/xlink">
<g id="graph0" class="graph" transform="scale(1 1) rotate(0) translate(4 592)">
<title>dependency&#45;cruiser output</title>
<polygon fill="white" stroke="none" points="-4,4 -4,-592 976.5,-592 976.5,4 -4,4"/>
<g id="clust1" class="cluster">
<title>cluster_src</title>
<path fill="#ffffff" stroke="black" stroke-width="2" d="M20,-8C20,-8 952.5,-8 952.5,-8 958.5,-8 964.5,-14 964.5,-20 964.5,-20 964.5,-568 964.5,-568 964.5,-574 958.5,-580 952.5,-580 952.5,-580 20,-580 20,-580 14,-580 8,-574 8,-568 8,-568 8,-20 8,-20 8,-14 14,-8 20,-8"/>
<text text-anchor="middle" x="486.25" y="-568.8" font-family="Helvetica,sans-Serif" font-weight="bold" font-size="9.00">src</text>
</g>
<g id="clust2" class="cluster">
<title>cluster_src/Data</title>
<path fill="#ffffff" stroke="black" stroke-width="2" d="M196.5,-76C196.5,-76 858.5,-76 858.5,-76 864.5,-76 870.5,-82 870.5,-88 870.5,-88 870.5,-164 870.5,-164 870.5,-170 864.5,-176 858.5,-176 858.5,-176 196.5,-176 196.5,-176 190.5,-176 184.5,-170 184.5,-164 184.5,-164 184.5,-88 184.5,-88 184.5,-82 190.5,-76 196.5,-76"/>
<text text-anchor="middle" x="527.5" y="-164.8" font-family="Helvetica,sans-Serif" font-weight="bold" font-size="9.00">Data</text>
</g>
<g id="clust3" class="cluster">
<title>cluster_src/Data/DataSource</title>
<path fill="#ffffff" stroke="black" stroke-width="2" d="M551.5,-84C551.5,-84 850.5,-84 850.5,-84 856.5,-84 862.5,-90 862.5,-96 862.5,-96 862.5,-138 862.5,-138 862.5,-144 856.5,-150 850.5,-150 850.5,-150 551.5,-150 551.5,-150 545.5,-150 539.5,-144 539.5,-138 539.5,-138 539.5,-96 539.5,-96 539.5,-90 545.5,-84 551.5,-84"/>
<text text-anchor="middle" x="701" y="-138.8" font-family="Helvetica,sans-Serif" font-weight="bold" font-size="9.00">DataSource</text>
</g>
<g id="clust4" class="cluster">
<title>cluster_src/Data/Repository</title>
<path fill="#ffffff" stroke="black" stroke-width="2" d="M284.5,-96C284.5,-96 481.5,-96 481.5,-96 487.5,-96 493.5,-102 493.5,-108 493.5,-108 493.5,-136 493.5,-136 493.5,-142 487.5,-148 481.5,-148 481.5,-148 284.5,-148 284.5,-148 278.5,-148 272.5,-142 272.5,-136 272.5,-136 272.5,-108 272.5,-108 272.5,-102 278.5,-96 284.5,-96"/>
<text text-anchor="middle" x="383" y="-136.8" font-family="Helvetica,sans-Serif" font-weight="bold" font-size="9.00">Repository</text>
</g>
<g id="clust5" class="cluster">
<title>cluster_src/Domain</title>
<path fill="#ffffff" stroke="black" stroke-width="2" d="M543.5,-184C543.5,-184 944.5,-184 944.5,-184 950.5,-184 956.5,-190 956.5,-196 956.5,-196 956.5,-362 956.5,-362 956.5,-368 950.5,-374 944.5,-374 944.5,-374 543.5,-374 543.5,-374 537.5,-374 531.5,-368 531.5,-362 531.5,-362 531.5,-196 531.5,-196 531.5,-190 537.5,-184 543.5,-184"/>
<text text-anchor="middle" x="744" y="-362.8" font-family="Helvetica,sans-Serif" font-weight="bold" font-size="9.00">Domain</text>
</g>
<g id="clust6" class="cluster">
<title>cluster_src/Domain/Model</title>
<path fill="#ffffff" stroke="black" stroke-width="2" d="M890.5,-221C890.5,-221 936.5,-221 936.5,-221 942.5,-221 948.5,-227 948.5,-233 948.5,-233 948.5,-261 948.5,-261 948.5,-267 942.5,-273 936.5,-273 936.5,-273 890.5,-273 890.5,-273 884.5,-273 878.5,-267 878.5,-261 878.5,-261 878.5,-233 878.5,-233 878.5,-227 884.5,-221 890.5,-221"/>
<text text-anchor="middle" x="913.5" y="-261.8" font-family="Helvetica,sans-Serif" font-weight="bold" font-size="9.00">Model</text>
</g>
<g id="clust7" class="cluster">
<title>cluster_src/Domain/Repository</title>
<path fill="#ffffff" stroke="black" stroke-width="2" d="M794.5,-296C794.5,-296 840.5,-296 840.5,-296 846.5,-296 852.5,-302 852.5,-308 852.5,-308 852.5,-336 852.5,-336 852.5,-342 846.5,-348 840.5,-348 840.5,-348 794.5,-348 794.5,-348 788.5,-348 782.5,-342 782.5,-336 782.5,-336 782.5,-308 782.5,-308 782.5,-302 788.5,-296 794.5,-296"/>
<text text-anchor="middle" x="817.5" y="-336.8" font-family="Helvetica,sans-Serif" font-weight="bold" font-size="9.00">Repository</text>
</g>
<g id="clust8" class="cluster">
<title>cluster_src/Domain/UseCase</title>
<path fill="#ffffff" stroke="black" stroke-width="2" d="M551.5,-192C551.5,-192 840.5,-192 840.5,-192 846.5,-192 852.5,-198 852.5,-204 852.5,-204 852.5,-276 852.5,-276 852.5,-282 846.5,-288 840.5,-288 840.5,-288 551.5,-288 551.5,-288 545.5,-288 539.5,-282 539.5,-276 539.5,-276 539.5,-204 539.5,-204 539.5,-198 545.5,-192 551.5,-192"/>
<text text-anchor="middle" x="696" y="-276.8" font-family="Helvetica,sans-Serif" font-weight="bold" font-size="9.00">UseCase</text>
</g>
<g id="clust9" class="cluster">
<title>cluster_src/Main</title>
<path fill="#ffffff" stroke="black" stroke-width="2" d="M126,-16C126,-16 242.5,-16 242.5,-16 248.5,-16 254.5,-22 254.5,-28 254.5,-28 254.5,-56 254.5,-56 254.5,-62 248.5,-68 242.5,-68 242.5,-68 126,-68 126,-68 120,-68 114,-62 114,-56 114,-56 114,-28 114,-28 114,-22 120,-16 126,-16"/>
<text text-anchor="middle" x="184.25" y="-56.8" font-family="Helvetica,sans-Serif" font-weight="bold" font-size="9.00">Main</text>
</g>
<g id="clust10" class="cluster">
<title>cluster_src/Presentation</title>
<path fill="#ffffff" stroke="black" stroke-width="2" d="M196.5,-382C196.5,-382 610.5,-382 610.5,-382 616.5,-382 622.5,-388 622.5,-394 622.5,-394 622.5,-542 622.5,-542 622.5,-548 616.5,-554 610.5,-554 610.5,-554 196.5,-554 196.5,-554 190.5,-554 184.5,-548 184.5,-542 184.5,-542 184.5,-394 184.5,-394 184.5,-388 190.5,-382 196.5,-382"/>
<text text-anchor="middle" x="403.5" y="-542.8" font-family="Helvetica,sans-Serif" font-weight="bold" font-size="9.00">Presentation</text>
</g>
<g id="clust11" class="cluster">
<title>cluster_src/Presentation/hook</title>
<path fill="#ffffff" stroke="black" stroke-width="2" d="M372.5,-390C372.5,-390 511.5,-390 511.5,-390 517.5,-390 523.5,-396 523.5,-402 523.5,-402 523.5,-430 523.5,-430 523.5,-436 517.5,-442 511.5,-442 511.5,-442 372.5,-442 372.5,-442 366.5,-442 360.5,-436 360.5,-430 360.5,-430 360.5,-402 360.5,-402 360.5,-396 366.5,-390 372.5,-390"/>
<text text-anchor="middle" x="442" y="-430.8" font-family="Helvetica,sans-Serif" font-weight="bold" font-size="9.00">hook</text>
</g>
<!-- src/Data/DataSource/DataSource.ts -->
<g id="node1" class="node">
<title>src/Data/DataSource/DataSource.ts</title>
<g id="a_node1"><a xlink:href="src/Data/DataSource/DataSource.ts" xlink:title="DataSource.ts">
<path fill="#ddfeff" stroke="black" d="M848.5,-124C848.5,-124 786.5,-124 786.5,-124 783.5,-124 780.5,-121 780.5,-118 780.5,-118 780.5,-112 780.5,-112 780.5,-109 783.5,-106 786.5,-106 786.5,-106 848.5,-106 848.5,-106 851.5,-106 854.5,-109 854.5,-112 854.5,-112 854.5,-118 854.5,-118 854.5,-121 851.5,-124 848.5,-124"/>
<text text-anchor="start" x="788.5" y="-112.8" font-family="Helvetica,sans-Serif" font-size="9.00">DataSource.ts</text>
</a>
</g>
</g>
<!-- src/Domain/Model/index.ts -->
<g id="node2" class="node">
<title>src/Domain/Model/index.ts</title>
<g id="a_node2"><a xlink:href="src/Domain/Model/index.ts" xlink:title="index.ts">
<path fill="#ddfeff" stroke="black" d="M934.5,-247C934.5,-247 892.5,-247 892.5,-247 889.5,-247 886.5,-244 886.5,-241 886.5,-241 886.5,-235 886.5,-235 886.5,-232 889.5,-229 892.5,-229 892.5,-229 934.5,-229 934.5,-229 937.5,-229 940.5,-232 940.5,-235 940.5,-235 940.5,-241 940.5,-241 940.5,-244 937.5,-247 934.5,-247"/>
<text text-anchor="start" x="897.5" y="-235.8" font-family="Helvetica,sans-Serif" font-size="9.00">index.ts</text>
</a>
</g>
</g>
<!-- src/Data/DataSource/DataSource.ts&#45;&gt;src/Domain/Model/index.ts -->
<g id="edge1" class="edge">
<title>src/Data/DataSource/DataSource.ts&#45;&gt;src/Domain/Model/index.ts</title>
<path fill="none" stroke="#000000" stroke-width="2" stroke-opacity="0.200000" d="M825.57,-124.24C841.42,-144.99 880.01,-195.48 900.01,-221.66"/>
<polygon fill="#000000" fill-opacity="0.200000" stroke="#000000" stroke-width="2" stroke-opacity="0.200000" points="898.2,-222.75 903.51,-226.24 901.54,-220.2 898.2,-222.75"/>
</g>
<!-- src/Data/DataSource/OnMemoryDataSourceImpl.ts -->
<g id="node3" class="node">
<title>src/Data/DataSource/OnMemoryDataSourceImpl.ts</title>
<g id="a_node3"><a xlink:href="src/Data/DataSource/OnMemoryDataSourceImpl.ts" xlink:title="OnMemoryDataSourceImpl.ts">
<path fill="#ddfeff" stroke="black" d="M761.5,-110C761.5,-110 636.5,-110 636.5,-110 633.5,-110 630.5,-107 630.5,-104 630.5,-104 630.5,-98 630.5,-98 630.5,-95 633.5,-92 636.5,-92 636.5,-92 761.5,-92 761.5,-92 764.5,-92 767.5,-95 767.5,-98 767.5,-98 767.5,-104 767.5,-104 767.5,-107 764.5,-110 761.5,-110"/>
<text text-anchor="start" x="638.5" y="-98.8" font-family="Helvetica,sans-Serif" font-size="9.00">OnMemoryDataSourceImpl.ts</text>
</a>
</g>
</g>
<!-- src/Data/DataSource/OnMemoryDataSourceImpl.ts&#45;&gt;src/Data/DataSource/DataSource.ts -->
<g id="edge3" class="edge">
<title>src/Data/DataSource/OnMemoryDataSourceImpl.ts&#45;&gt;src/Data/DataSource/DataSource.ts</title>
<path fill="none" stroke="#000000" stroke-width="2" stroke-opacity="0.200000" d="M767.77,-109.14C768.95,-109.29 770.13,-109.43 771.3,-109.57"/>
<polygon fill="#000000" fill-opacity="0.200000" stroke="#000000" stroke-width="2" stroke-opacity="0.200000" points="770.87,-111.63 777.08,-110.26 771.38,-107.46 770.87,-111.63"/>
</g>
<!-- src/Data/DataSource/OnMemoryDataSourceImpl.ts&#45;&gt;src/Domain/Model/index.ts -->
<g id="edge2" class="edge">
<title>src/Data/DataSource/OnMemoryDataSourceImpl.ts&#45;&gt;src/Domain/Model/index.ts</title>
<path fill="none" stroke="#000000" stroke-width="2" stroke-opacity="0.200000" d="M727.91,-91.5C764.49,-80.95 828.88,-69.16 870.5,-100 908.27,-127.98 913.23,-189.11 913.19,-219.74"/>
<polygon fill="#000000" fill-opacity="0.200000" stroke="#000000" stroke-width="2" stroke-opacity="0.200000" points="911.1,-219.47 913.09,-225.51 915.3,-219.55 911.1,-219.47"/>
</g>
<!-- src/Data/DataSource/index.ts -->
<g id="node4" class="node">
<title>src/Data/DataSource/index.ts</title>
<g id="a_node4"><a xlink:href="src/Data/DataSource/index.ts" xlink:title="index.ts">
<path fill="#ddfeff" stroke="black" d="M595.5,-116C595.5,-116 553.5,-116 553.5,-116 550.5,-116 547.5,-113 547.5,-110 547.5,-110 547.5,-104 547.5,-104 547.5,-101 550.5,-98 553.5,-98 553.5,-98 595.5,-98 595.5,-98 598.5,-98 601.5,-101 601.5,-104 601.5,-104 601.5,-110 601.5,-110 601.5,-113 598.5,-116 595.5,-116"/>
<text text-anchor="start" x="558.5" y="-104.8" font-family="Helvetica,sans-Serif" font-size="9.00">index.ts</text>
</a>
</g>
</g>
<!-- src/Data/DataSource/index.ts&#45;&gt;src/Data/DataSource/DataSource.ts -->
<g id="edge4" class="edge">
<title>src/Data/DataSource/index.ts&#45;&gt;src/Data/DataSource/DataSource.ts</title>
<path fill="none" stroke="#000000" stroke-width="2" stroke-opacity="0.200000" d="M601.97,-112.22C610.98,-113.76 621.15,-115.24 630.5,-116 678.47,-119.9 733.64,-118.92 771.35,-117.42"/>
<polygon fill="#000000" fill-opacity="0.200000" stroke="#000000" stroke-width="2" stroke-opacity="0.200000" points="771.15,-119.53 777.05,-117.18 770.97,-115.33 771.15,-119.53"/>
</g>
<!-- src/Data/DataSource/index.ts&#45;&gt;src/Data/DataSource/OnMemoryDataSourceImpl.ts -->
<g id="edge5" class="edge">
<title>src/Data/DataSource/index.ts&#45;&gt;src/Data/DataSource/OnMemoryDataSourceImpl.ts</title>
<path fill="none" stroke="#000000" stroke-width="2" stroke-opacity="0.200000" d="M601.78,-105.71C607.76,-105.42 614.41,-105.09 621.34,-104.75"/>
<polygon fill="#000000" fill-opacity="0.200000" stroke="#000000" stroke-width="2" stroke-opacity="0.200000" points="621.33,-106.86 627.22,-104.47 621.13,-102.66 621.33,-106.86"/>
</g>
<!-- src/Data/Repository/RepositoryImpl.ts -->
<g id="node5" class="node">
<title>src/Data/Repository/RepositoryImpl.ts</title>
<g id="a_node5"><a xlink:href="src/Data/Repository/RepositoryImpl.ts" xlink:title="RepositoryImpl.ts">
<path fill="#ddfeff" stroke="black" d="M479.5,-122C479.5,-122 404.5,-122 404.5,-122 401.5,-122 398.5,-119 398.5,-116 398.5,-116 398.5,-110 398.5,-110 398.5,-107 401.5,-104 404.5,-104 404.5,-104 479.5,-104 479.5,-104 482.5,-104 485.5,-107 485.5,-110 485.5,-110 485.5,-116 485.5,-116 485.5,-119 482.5,-122 479.5,-122"/>
<text text-anchor="start" x="406.5" y="-110.8" font-family="Helvetica,sans-Serif" font-size="9.00">RepositoryImpl.ts</text>
</a>
</g>
</g>
<!-- src/Data/Repository/RepositoryImpl.ts&#45;&gt;src/Domain/Model/index.ts -->
<g id="edge6" class="edge">
<title>src/Data/Repository/RepositoryImpl.ts&#45;&gt;src/Domain/Model/index.ts</title>
<path fill="none" stroke="#000000" stroke-width="2" stroke-opacity="0.200000" d="M462.16,-103.52C527.31,-72.77 743.27,16.66 870.5,-81 892.59,-97.95 905.58,-182.08 910.38,-219.73"/>
<polygon fill="#000000" fill-opacity="0.200000" stroke="#000000" stroke-width="2" stroke-opacity="0.200000" points="908.28,-219.93 911.1,-225.63 912.45,-219.41 908.28,-219.93"/>
</g>
<!-- src/Data/Repository/RepositoryImpl.ts&#45;&gt;src/Data/DataSource/index.ts -->
<g id="edge8" class="edge">
<title>src/Data/Repository/RepositoryImpl.ts&#45;&gt;src/Data/DataSource/index.ts</title>
<path fill="none" stroke="#000000" stroke-width="2" stroke-opacity="0.200000" d="M485.73,-111.04C502.79,-110.25 522.19,-109.36 538.41,-108.61"/>
<polygon fill="#000000" fill-opacity="0.200000" stroke="#000000" stroke-width="2" stroke-opacity="0.200000" points="538.13,-110.73 544.03,-108.36 537.94,-106.53 538.13,-110.73"/>
</g>
<!-- src/Domain/Repository/index.ts -->
<g id="node6" class="node">
<title>src/Domain/Repository/index.ts</title>
<g id="a_node6"><a xlink:href="src/Domain/Repository/index.ts" xlink:title="index.ts">
<path fill="#ddfeff" stroke="black" d="M838.5,-322C838.5,-322 796.5,-322 796.5,-322 793.5,-322 790.5,-319 790.5,-316 790.5,-316 790.5,-310 790.5,-310 790.5,-307 793.5,-304 796.5,-304 796.5,-304 838.5,-304 838.5,-304 841.5,-304 844.5,-307 844.5,-310 844.5,-310 844.5,-316 844.5,-316 844.5,-319 841.5,-322 838.5,-322"/>
<text text-anchor="start" x="801.5" y="-310.8" font-family="Helvetica,sans-Serif" font-size="9.00">index.ts</text>
</a>
</g>
</g>
<!-- src/Data/Repository/RepositoryImpl.ts&#45;&gt;src/Domain/Repository/index.ts -->
<g id="edge7" class="edge">
<title>src/Data/Repository/RepositoryImpl.ts&#45;&gt;src/Domain/Repository/index.ts</title>
<path fill="none" stroke="#000000" stroke-width="2" stroke-opacity="0.200000" d="M460.09,-122.42C477.53,-131.63 505.63,-145.34 531.5,-153 582.37,-168.07 730.45,-151.03 767.5,-189 799.41,-221.71 755.67,-252.64 780.5,-291 782.28,-293.74 784.53,-296.2 787.03,-298.38"/>
<polygon fill="#000000" fill-opacity="0.200000" stroke="#000000" stroke-width="2" stroke-opacity="0.200000" points="785.58,-299.92 791.67,-301.76 788.06,-296.53 785.58,-299.92"/>
</g>
<!-- src/Domain/Repository/index.ts&#45;&gt;src/Domain/Model/index.ts -->
<g id="edge12" class="edge">
<title>src/Domain/Repository/index.ts&#45;&gt;src/Domain/Model/index.ts</title>
<path fill="none" stroke="#000000" stroke-width="2" stroke-opacity="0.200000" d="M844.74,-304.85C853.44,-301.4 862.86,-296.82 870.5,-291 883.56,-281.06 894.87,-266.18 902.46,-254.72"/>
<polygon fill="#000000" fill-opacity="0.200000" stroke="#000000" stroke-width="2" stroke-opacity="0.200000" points="904.02,-256.17 905.47,-249.98 900.48,-253.92 904.02,-256.17"/>
</g>
<!-- src/Data/Repository/index.ts -->
<g id="node7" class="node">
<title>src/Data/Repository/index.ts</title>
<g id="a_node7"><a xlink:href="src/Data/Repository/index.ts" xlink:title="index.ts">
<path fill="#ddfeff" stroke="black" d="M328.5,-122C328.5,-122 286.5,-122 286.5,-122 283.5,-122 280.5,-119 280.5,-116 280.5,-116 280.5,-110 280.5,-110 280.5,-107 283.5,-104 286.5,-104 286.5,-104 328.5,-104 328.5,-104 331.5,-104 334.5,-107 334.5,-110 334.5,-110 334.5,-116 334.5,-116 334.5,-119 331.5,-122 328.5,-122"/>
<text text-anchor="start" x="291.5" y="-110.8" font-family="Helvetica,sans-Serif" font-size="9.00">index.ts</text>
</a>
</g>
</g>
<!-- src/Data/Repository/index.ts&#45;&gt;src/Data/Repository/RepositoryImpl.ts -->
<g id="edge9" class="edge">
<title>src/Data/Repository/index.ts&#45;&gt;src/Data/Repository/RepositoryImpl.ts</title>
<path fill="none" stroke="#000000" stroke-width="2" stroke-opacity="0.200000" d="M334.99,-113C350.51,-113 370.63,-113 389.17,-113"/>
<polygon fill="#000000" fill-opacity="0.200000" stroke="#000000" stroke-width="2" stroke-opacity="0.200000" points="389.09,-115.1 395.09,-113 389.09,-110.9 389.09,-115.1"/>
</g>
<!-- src/Data/index.ts -->
<g id="node8" class="node">
<title>src/Data/index.ts</title>
<g id="a_node8"><a xlink:href="src/Data/index.ts" xlink:title="index.ts">
<path fill="#ddfeff" stroke="black" d="M240.5,-102C240.5,-102 198.5,-102 198.5,-102 195.5,-102 192.5,-99 192.5,-96 192.5,-96 192.5,-90 192.5,-90 192.5,-87 195.5,-84 198.5,-84 198.5,-84 240.5,-84 240.5,-84 243.5,-84 246.5,-87 246.5,-90 246.5,-90 246.5,-96 246.5,-96 246.5,-99 243.5,-102 240.5,-102"/>
<text text-anchor="start" x="203.5" y="-90.8" font-family="Helvetica,sans-Serif" font-size="9.00">index.ts</text>
</a>
</g>
</g>
<!-- src/Data/index.ts&#45;&gt;src/Data/DataSource/index.ts -->
<g id="edge10" class="edge">
<title>src/Data/index.ts&#45;&gt;src/Data/DataSource/index.ts</title>
<path fill="none" stroke="#000000" stroke-width="2" stroke-opacity="0.200000" d="M246.6,-90.62C299.26,-86.35 421.88,-79.04 523.5,-93 528.36,-93.67 533.4,-94.68 538.35,-95.87"/>
<polygon fill="#000000" fill-opacity="0.200000" stroke="#000000" stroke-width="2" stroke-opacity="0.200000" points="537.79,-97.89 544.13,-97.38 538.86,-93.83 537.79,-97.89"/>
</g>
<!-- src/Data/index.ts&#45;&gt;src/Data/Repository/index.ts -->
<g id="edge11" class="edge">
<title>src/Data/index.ts&#45;&gt;src/Data/Repository/index.ts</title>
<path fill="none" stroke="#000000" stroke-width="2" stroke-opacity="0.200000" d="M246.77,-99.11C254.53,-100.91 263.16,-102.92 271.38,-104.83"/>
<polygon fill="#000000" fill-opacity="0.200000" stroke="#000000" stroke-width="2" stroke-opacity="0.200000" points="270.83,-106.86 277.15,-106.17 271.78,-102.77 270.83,-106.86"/>
</g>
<!-- src/Domain/UseCase/ClickOnBoardUseCase.ts -->
<g id="node9" class="node">
<title>src/Domain/UseCase/ClickOnBoardUseCase.ts</title>
<g id="a_node9"><a xlink:href="src/Domain/UseCase/ClickOnBoardUseCase.ts" xlink:title="ClickOnBoardUseCase.ts">
<path fill="#ddfeff" stroke="black" d="M753.5,-232C753.5,-232 644.5,-232 644.5,-232 641.5,-232 638.5,-229 638.5,-226 638.5,-226 638.5,-220 638.5,-220 638.5,-217 641.5,-214 644.5,-214 644.5,-214 753.5,-214 753.5,-214 756.5,-214 759.5,-217 759.5,-220 759.5,-220 759.5,-226 759.5,-226 759.5,-229 756.5,-232 753.5,-232"/>
<text text-anchor="start" x="646.5" y="-220.8" font-family="Helvetica,sans-Serif" font-size="9.00">ClickOnBoardUseCase.ts</text>
</a>
</g>
</g>
<!-- src/Domain/UseCase/ClickOnBoardUseCase.ts&#45;&gt;src/Domain/Model/index.ts -->
<g id="edge13" class="edge">
<title>src/Domain/UseCase/ClickOnBoardUseCase.ts&#45;&gt;src/Domain/Model/index.ts</title>
<path fill="none" stroke="#000000" stroke-width="2" stroke-opacity="0.200000" d="M759.76,-229.25C766.75,-229.89 773.78,-230.49 780.5,-231 813.25,-233.49 850.64,-235.39 877.24,-236.57"/>
<polygon fill="#000000" fill-opacity="0.200000" stroke="#000000" stroke-width="2" stroke-opacity="0.200000" points="877.07,-238.67 883.16,-236.83 877.25,-234.47 877.07,-238.67"/>
</g>
<!-- src/Domain/UseCase/ClickOnBoardUseCase.ts&#45;&gt;src/Domain/Repository/index.ts -->
<g id="edge14" class="edge">
<title>src/Domain/UseCase/ClickOnBoardUseCase.ts&#45;&gt;src/Domain/Repository/index.ts</title>
<path fill="none" stroke="#000000" stroke-width="2" stroke-opacity="0.200000" d="M759.84,-232.09C762.6,-233.78 765.18,-235.73 767.5,-238 784.84,-254.96 766.18,-271.42 780.5,-291 782.48,-293.7 784.89,-296.14 787.53,-298.32"/>
<polygon fill="#000000" fill-opacity="0.200000" stroke="#000000" stroke-width="2" stroke-opacity="0.200000" points="786.29,-300.02 792.4,-301.76 788.71,-296.59 786.29,-300.02"/>
</g>
<!-- src/Domain/UseCase/Util.ts -->
<g id="node10" class="node">
<title>src/Domain/UseCase/Util.ts</title>
<g id="a_node10"><a xlink:href="src/Domain/UseCase/Util.ts" xlink:title="Util.ts">
<path fill="#ddfeff" stroke="black" d="M838.5,-225C838.5,-225 796.5,-225 796.5,-225 793.5,-225 790.5,-222 790.5,-219 790.5,-219 790.5,-213 790.5,-213 790.5,-210 793.5,-207 796.5,-207 796.5,-207 838.5,-207 838.5,-207 841.5,-207 844.5,-210 844.5,-213 844.5,-213 844.5,-219 844.5,-219 844.5,-222 841.5,-225 838.5,-225"/>
<text text-anchor="start" x="806" y="-213.8" font-family="Helvetica,sans-Serif" font-size="9.00">Util.ts</text>
</a>
</g>
</g>
<!-- src/Domain/UseCase/ClickOnBoardUseCase.ts&#45;&gt;src/Domain/UseCase/Util.ts -->
<g id="edge15" class="edge">
<title>src/Domain/UseCase/ClickOnBoardUseCase.ts&#45;&gt;src/Domain/UseCase/Util.ts</title>
<path fill="none" stroke="#000000" stroke-width="2" stroke-opacity="0.200000" d="M759.96,-219.4C767.24,-218.96 774.49,-218.52 781.24,-218.12"/>
<polygon fill="#000000" fill-opacity="0.200000" stroke="#000000" stroke-width="2" stroke-opacity="0.200000" points="781.22,-220.22 787.08,-217.77 780.97,-216.03 781.22,-220.22"/>
</g>
<!-- src/Domain/UseCase/Util.ts&#45;&gt;src/Domain/Model/index.ts -->
<g id="edge17" class="edge">
<title>src/Domain/UseCase/Util.ts&#45;&gt;src/Domain/Model/index.ts</title>
<path fill="none" stroke="#000000" stroke-width="2" stroke-opacity="0.200000" d="M844.93,-222.19C855.03,-224.55 866.71,-227.28 877.48,-229.8"/>
<polygon fill="#000000" fill-opacity="0.200000" stroke="#000000" stroke-width="2" stroke-opacity="0.200000" points="877,-231.85 883.32,-231.17 877.95,-227.76 877,-231.85"/>
</g>
<!-- src/Domain/UseCase/JumpToStepUseCase.ts -->
<g id="node11" class="node">
<title>src/Domain/UseCase/JumpToStepUseCase.ts</title>
<g id="a_node11"><a xlink:href="src/Domain/UseCase/JumpToStepUseCase.ts" xlink:title="JumpToStepUseCase.ts">
<path fill="#ddfeff" stroke="black" d="M750.5,-262C750.5,-262 647.5,-262 647.5,-262 644.5,-262 641.5,-259 641.5,-256 641.5,-256 641.5,-250 641.5,-250 641.5,-247 644.5,-244 647.5,-244 647.5,-244 750.5,-244 750.5,-244 753.5,-244 756.5,-247 756.5,-250 756.5,-250 756.5,-256 756.5,-256 756.5,-259 753.5,-262 750.5,-262"/>
<text text-anchor="start" x="649.5" y="-250.8" font-family="Helvetica,sans-Serif" font-size="9.00">JumpToStepUseCase.ts</text>
</a>
</g>
</g>
<!-- src/Domain/UseCase/JumpToStepUseCase.ts&#45;&gt;src/Domain/Repository/index.ts -->
<g id="edge16" class="edge">
<title>src/Domain/UseCase/JumpToStepUseCase.ts&#45;&gt;src/Domain/Repository/index.ts</title>
<path fill="none" stroke="#000000" stroke-width="2" stroke-opacity="0.200000" d="M718.2,-262.38C737.61,-272.37 768.51,-288.29 790.48,-299.6"/>
<polygon fill="#000000" fill-opacity="0.200000" stroke="#000000" stroke-width="2" stroke-opacity="0.200000" points="789.44,-301.42 795.73,-302.3 791.36,-297.69 789.44,-301.42"/>
</g>
<!-- src/Domain/UseCase/index.ts -->
<g id="node12" class="node">
<title>src/Domain/UseCase/index.ts</title>
<g id="a_node12"><a xlink:href="src/Domain/UseCase/index.ts" xlink:title="index.ts">
<path fill="#ddfeff" stroke="black" d="M595.5,-262C595.5,-262 553.5,-262 553.5,-262 550.5,-262 547.5,-259 547.5,-256 547.5,-256 547.5,-250 547.5,-250 547.5,-247 550.5,-244 553.5,-244 553.5,-244 595.5,-244 595.5,-244 598.5,-244 601.5,-247 601.5,-250 601.5,-250 601.5,-256 601.5,-256 601.5,-259 598.5,-262 595.5,-262"/>
<text text-anchor="start" x="558.5" y="-250.8" font-family="Helvetica,sans-Serif" font-size="9.00">index.ts</text>
</a>
</g>
</g>
<!-- src/Domain/UseCase/index.ts&#45;&gt;src/Domain/UseCase/ClickOnBoardUseCase.ts -->
<g id="edge18" class="edge">
<title>src/Domain/UseCase/index.ts&#45;&gt;src/Domain/UseCase/ClickOnBoardUseCase.ts</title>
<path fill="none" stroke="#000000" stroke-width="2" stroke-opacity="0.200000" d="M601.73,-245.57C610.82,-243.07 621.08,-240.33 630.5,-238 635.35,-236.8 640.41,-235.59 645.48,-234.41"/>
<polygon fill="#000000" fill-opacity="0.200000" stroke="#000000" stroke-width="2" stroke-opacity="0.200000" points="645.67,-236.53 651.04,-233.14 644.73,-232.43 645.67,-236.53"/>
</g>
<!-- src/Domain/UseCase/index.ts&#45;&gt;src/Domain/UseCase/Util.ts -->
<g id="edge20" class="edge">
<title>src/Domain/UseCase/index.ts&#45;&gt;src/Domain/UseCase/Util.ts</title>
<path fill="none" stroke="#000000" stroke-width="2" stroke-opacity="0.200000" d="M583.26,-243.56C592.97,-232.58 610.75,-215.05 630.5,-208 680.66,-190.09 743.32,-198.56 781.59,-206.86"/>
<polygon fill="#000000" fill-opacity="0.200000" stroke="#000000" stroke-width="2" stroke-opacity="0.200000" points="781.04,-208.89 787.36,-208.17 781.97,-204.79 781.04,-208.89"/>
</g>
<!-- src/Domain/UseCase/index.ts&#45;&gt;src/Domain/UseCase/JumpToStepUseCase.ts -->
<g id="edge19" class="edge">
<title>src/Domain/UseCase/index.ts&#45;&gt;src/Domain/UseCase/JumpToStepUseCase.ts</title>
<path fill="none" stroke="#000000" stroke-width="2" stroke-opacity="0.200000" d="M601.78,-253C610.79,-253 621.31,-253 632.03,-253"/>
<polygon fill="#000000" fill-opacity="0.200000" stroke="#000000" stroke-width="2" stroke-opacity="0.200000" points="632.02,-255.1 638.02,-253 632.02,-250.9 632.02,-255.1"/>
</g>
<!-- src/Main/App.css -->
<g id="node13" class="node">
<title>src/Main/App.css</title>
<g id="a_node13"><a xlink:href="src/Main/App.css" xlink:title="App.css">
<path fill="#ffffcc" stroke="black" d="M240.5,-42C240.5,-42 198.5,-42 198.5,-42 195.5,-42 192.5,-39 192.5,-36 192.5,-36 192.5,-30 192.5,-30 192.5,-27 195.5,-24 198.5,-24 198.5,-24 240.5,-24 240.5,-24 243.5,-24 246.5,-27 246.5,-30 246.5,-30 246.5,-36 246.5,-36 246.5,-39 243.5,-42 240.5,-42"/>
<text text-anchor="start" x="203" y="-30.8" font-family="Helvetica,sans-Serif" font-size="9.00">App.css</text>
</a>
</g>
</g>
<!-- src/Main/App.tsx -->
<g id="node14" class="node">
<title>src/Main/App.tsx</title>
<g id="a_node14"><a xlink:href="src/Main/App.tsx" xlink:title="App.tsx">
<path fill="#bbfeff" stroke="black" d="M170,-42C170,-42 128,-42 128,-42 125,-42 122,-39 122,-36 122,-36 122,-30 122,-30 122,-27 125,-24 128,-24 128,-24 170,-24 170,-24 173,-24 176,-27 176,-30 176,-30 176,-36 176,-36 176,-39 173,-42 170,-42"/>
<text text-anchor="start" x="133.5" y="-30.8" font-family="Helvetica,sans-Serif" font-size="9.00">App.tsx</text>
</a>
</g>
</g>
<!-- src/Main/App.tsx&#45;&gt;src/Data/index.ts -->
<g id="edge21" class="edge">
<title>src/Main/App.tsx&#45;&gt;src/Data/index.ts</title>
<path fill="none" stroke="#000000" stroke-width="2" stroke-opacity="0.200000" d="M172.65,-42.4C174.06,-43.48 175.36,-44.68 176.5,-46 184.12,-54.83 177.41,-61.73 184.5,-71 186.66,-73.83 189.3,-76.4 192.14,-78.7"/>
<polygon fill="#000000" fill-opacity="0.200000" stroke="#000000" stroke-width="2" stroke-opacity="0.200000" points="190.43,-80.06 196.54,-81.83 192.87,-76.64 190.43,-80.06"/>
</g>
<!-- src/Main/App.tsx&#45;&gt;src/Main/App.css -->
<g id="edge23" class="edge">
<title>src/Main/App.tsx&#45;&gt;src/Main/App.css</title>
<path fill="none" stroke="#000000" stroke-width="2" stroke-opacity="0.200000" d="M176.29,-33C178.68,-33 181.13,-33 183.58,-33"/>
<polygon fill="#000000" fill-opacity="0.200000" stroke="#000000" stroke-width="2" stroke-opacity="0.200000" points="183.37,-35.1 189.37,-33 183.37,-30.9 183.37,-35.1"/>
</g>
<!-- src/Presentation/index.ts -->
<g id="node15" class="node">
<title>src/Presentation/index.ts</title>
<g id="a_node15"><a xlink:href="src/Presentation/index.ts" xlink:title="index.ts">
<path fill="#ddfeff" stroke="black" d="M240.5,-412C240.5,-412 198.5,-412 198.5,-412 195.5,-412 192.5,-409 192.5,-406 192.5,-406 192.5,-400 192.5,-400 192.5,-397 195.5,-394 198.5,-394 198.5,-394 240.5,-394 240.5,-394 243.5,-394 246.5,-397 246.5,-400 246.5,-400 246.5,-406 246.5,-406 246.5,-409 243.5,-412 240.5,-412"/>
<text text-anchor="start" x="203.5" y="-400.8" font-family="Helvetica,sans-Serif" font-size="9.00">index.ts</text>
</a>
</g>
</g>
<!-- src/Main/App.tsx&#45;&gt;src/Presentation/index.ts -->
<g id="edge22" class="edge">
<title>src/Main/App.tsx&#45;&gt;src/Presentation/index.ts</title>
<path fill="none" stroke="#000000" stroke-width="2" stroke-opacity="0.200000" d="M173.27,-42.31C174.5,-43.41 175.59,-44.64 176.5,-46 184.7,-58.32 182.94,-164.28 184.5,-179 192.66,-256.17 208.44,-347.43 215.24,-385.23"/>
<polygon fill="#000000" fill-opacity="0.200000" stroke="#000000" stroke-width="2" stroke-opacity="0.200000" points="213.09,-385.14 216.23,-390.67 217.22,-384.39 213.09,-385.14"/>
</g>
<!-- src/Presentation/TicTacToeView.tsx -->
<g id="node20" class="node">
<title>src/Presentation/TicTacToeView.tsx</title>
<g id="a_node20"><a xlink:href="src/Presentation/TicTacToeView.tsx" xlink:title="TicTacToeView.tsx">
<path fill="#bbfeff" stroke="black" d="M346.5,-416C346.5,-416 268.5,-416 268.5,-416 265.5,-416 262.5,-413 262.5,-410 262.5,-410 262.5,-404 262.5,-404 262.5,-401 265.5,-398 268.5,-398 268.5,-398 346.5,-398 346.5,-398 349.5,-398 352.5,-401 352.5,-404 352.5,-404 352.5,-410 352.5,-410 352.5,-413 349.5,-416 346.5,-416"/>
<text text-anchor="start" x="270.5" y="-404.8" font-family="Helvetica,sans-Serif" font-size="9.00">TicTacToeView.tsx</text>
</a>
</g>
</g>
<!-- src/Presentation/index.ts&#45;&gt;src/Presentation/TicTacToeView.tsx -->
<g id="edge36" class="edge">
<title>src/Presentation/index.ts&#45;&gt;src/Presentation/TicTacToeView.tsx</title>
<path fill="none" stroke="#000000" stroke-width="2" stroke-opacity="0.200000" d="M246.77,-404.22C248.93,-404.32 251.16,-404.43 253.43,-404.53"/>
<polygon fill="#000000" fill-opacity="0.200000" stroke="#000000" stroke-width="2" stroke-opacity="0.200000" points="253.2,-406.62 259.29,-404.8 253.39,-402.43 253.2,-406.62"/>
</g>
<!-- src/Presentation/BoardView.tsx -->
<g id="node16" class="node">
<title>src/Presentation/BoardView.tsx</title>
<g id="a_node16"><a xlink:href="src/Presentation/BoardView.tsx" xlink:title="BoardView.tsx">
<path fill="#bbfeff" stroke="black" d="M473,-498C473,-498 411,-498 411,-498 408,-498 405,-495 405,-492 405,-492 405,-486 405,-486 405,-483 408,-480 411,-480 411,-480 473,-480 473,-480 476,-480 479,-483 479,-486 479,-486 479,-492 479,-492 479,-495 476,-498 473,-498"/>
<text text-anchor="start" x="413" y="-486.8" font-family="Helvetica,sans-Serif" font-size="9.00">BoardView.tsx</text>
</a>
</g>
</g>
<!-- src/Presentation/BoardView.tsx&#45;&gt;src/Domain/Model/index.ts -->
<g id="edge24" class="edge">
<title>src/Presentation/BoardView.tsx&#45;&gt;src/Domain/Model/index.ts</title>
<path fill="none" stroke="#000000" stroke-width="2" stroke-opacity="0.200000" d="M479.39,-493.72C562.5,-502.25 767.02,-510.05 870.5,-398 907.58,-357.85 912.74,-288.97 912.95,-256.27"/>
<polygon fill="#000000" fill-opacity="0.200000" stroke="#000000" stroke-width="2" stroke-opacity="0.200000" points="915.05,-256.36 912.9,-250.38 910.85,-256.39 915.05,-256.36"/>
</g>
<!-- src/Presentation/SquareView.tsx -->
<g id="node17" class="node">
<title>src/Presentation/SquareView.tsx</title>
<g id="a_node17"><a xlink:href="src/Presentation/SquareView.tsx" xlink:title="SquareView.tsx">
<path fill="#bbfeff" stroke="black" d="M608.5,-442C608.5,-442 540.5,-442 540.5,-442 537.5,-442 534.5,-439 534.5,-436 534.5,-436 534.5,-430 534.5,-430 534.5,-427 537.5,-424 540.5,-424 540.5,-424 608.5,-424 608.5,-424 611.5,-424 614.5,-427 614.5,-430 614.5,-430 614.5,-436 614.5,-436 614.5,-439 611.5,-442 608.5,-442"/>
<text text-anchor="start" x="542.5" y="-430.8" font-family="Helvetica,sans-Serif" font-size="9.00">SquareView.tsx</text>
</a>
</g>
</g>
<!-- src/Presentation/BoardView.tsx&#45;&gt;src/Presentation/SquareView.tsx -->
<g id="edge25" class="edge">
<title>src/Presentation/BoardView.tsx&#45;&gt;src/Presentation/SquareView.tsx</title>
<path fill="none" stroke="#000000" stroke-width="2" stroke-opacity="0.200000" d="M479.45,-486.13C493.69,-484.02 509.84,-480.36 523.5,-474 525.41,-473.11 542.22,-459.21 555.83,-447.84"/>
<polygon fill="#000000" fill-opacity="0.200000" stroke="#000000" stroke-width="2" stroke-opacity="0.200000" points="556.99,-449.61 560.24,-444.15 554.29,-446.39 556.99,-449.61"/>
</g>
<!-- src/Presentation/SquareView.tsx&#45;&gt;src/Domain/Model/index.ts -->
<g id="edge26" class="edge">
<title>src/Presentation/SquareView.tsx&#45;&gt;src/Domain/Model/index.ts</title>
<path fill="none" stroke="#000000" stroke-width="2" stroke-opacity="0.200000" d="M614.93,-436.36C677.3,-439.41 798.94,-435.82 870.5,-371 903.57,-341.04 910.79,-285.3 912.24,-256.42"/>
<polygon fill="#000000" fill-opacity="0.200000" stroke="#000000" stroke-width="2" stroke-opacity="0.200000" points="914.34,-256.5 912.45,-250.43 910.15,-256.36 914.34,-256.5"/>
</g>
<!-- src/Presentation/JumpToStepButtons.tsx -->
<g id="node18" class="node">
<title>src/Presentation/JumpToStepButtons.tsx</title>
<g id="a_node18"><a xlink:href="src/Presentation/JumpToStepButtons.tsx" xlink:title="JumpToStepButtons.tsx">
<path fill="#bbfeff" stroke="black" d="M492,-528C492,-528 392,-528 392,-528 389,-528 386,-525 386,-522 386,-522 386,-516 386,-516 386,-513 389,-510 392,-510 392,-510 492,-510 492,-510 495,-510 498,-513 498,-516 498,-516 498,-522 498,-522 498,-525 495,-528 492,-528"/>
<text text-anchor="start" x="394" y="-516.8" font-family="Helvetica,sans-Serif" font-size="9.00">JumpToStepButtons.tsx</text>
</a>
</g>
</g>
<!-- src/Presentation/StatusView.tsx -->
<g id="node19" class="node">
<title>src/Presentation/StatusView.tsx</title>
<g id="a_node19"><a xlink:href="src/Presentation/StatusView.tsx" xlink:title="StatusView.tsx">
<path fill="#bbfeff" stroke="black" d="M473.5,-468C473.5,-468 410.5,-468 410.5,-468 407.5,-468 404.5,-465 404.5,-462 404.5,-462 404.5,-456 404.5,-456 404.5,-453 407.5,-450 410.5,-450 410.5,-450 473.5,-450 473.5,-450 476.5,-450 479.5,-453 479.5,-456 479.5,-456 479.5,-462 479.5,-462 479.5,-465 476.5,-468 473.5,-468"/>
<text text-anchor="start" x="412.5" y="-456.8" font-family="Helvetica,sans-Serif" font-size="9.00">StatusView.tsx</text>
</a>
</g>
</g>
<!-- src/Presentation/StatusView.tsx&#45;&gt;src/Domain/Model/index.ts -->
<g id="edge27" class="edge">
<title>src/Presentation/StatusView.tsx&#45;&gt;src/Domain/Model/index.ts</title>
<path fill="none" stroke="#000000" stroke-width="2" stroke-opacity="0.200000" d="M479.9,-460.69C495.04,-459.49 511.74,-455.47 523.5,-445 532.85,-436.68 522.25,-426.43 531.5,-418 545.69,-405.07 855.88,-363.44 870.5,-351 898.92,-326.81 908.13,-281.49 911.1,-256.21"/>
<polygon fill="#000000" fill-opacity="0.200000" stroke="#000000" stroke-width="2" stroke-opacity="0.200000" points="913.18,-256.5 911.68,-250.32 909,-256.08 913.18,-256.5"/>
</g>
<!-- src/Presentation/TicTacToeView.tsx&#45;&gt;src/Domain/Repository/index.ts -->
<g id="edge28" class="edge">
<title>src/Presentation/TicTacToeView.tsx&#45;&gt;src/Domain/Repository/index.ts</title>
<path fill="none" stroke="#000000" stroke-width="2" stroke-opacity="0.200000" d="M331.63,-397.57C340.58,-394.06 350.95,-390.17 360.5,-387 435.42,-362.14 454.09,-354.46 531.5,-339 574.96,-330.32 586.39,-331.33 630.5,-327 682.94,-321.85 743.86,-317.59 781.29,-315.17"/>
<polygon fill="#000000" fill-opacity="0.200000" stroke="#000000" stroke-width="2" stroke-opacity="0.200000" points="781.41,-317.27 787.26,-314.79 781.14,-313.08 781.41,-317.27"/>
</g>
<!-- src/Presentation/TicTacToeView.tsx&#45;&gt;src/Domain/UseCase/index.ts -->
<g id="edge29" class="edge">
<title>src/Presentation/TicTacToeView.tsx&#45;&gt;src/Domain/UseCase/index.ts</title>
<path fill="none" stroke="#000000" stroke-width="2" stroke-opacity="0.200000" d="M311.38,-397.66C317.45,-379.54 333.27,-339.53 360.5,-318 413.27,-276.27 492.72,-261.24 538.19,-255.89"/>
<polygon fill="#000000" fill-opacity="0.200000" stroke="#000000" stroke-width="2" stroke-opacity="0.200000" points="538.34,-257.99 544.08,-255.25 537.88,-253.81 538.34,-257.99"/>
</g>
<!-- src/Presentation/TicTacToeView.tsx&#45;&gt;src/Presentation/BoardView.tsx -->
<g id="edge30" class="edge">
<title>src/Presentation/TicTacToeView.tsx&#45;&gt;src/Presentation/BoardView.tsx</title>
<path fill="none" stroke="#000000" stroke-width="2" stroke-opacity="0.200000" d="M312.79,-416.09C320.26,-430.83 337.12,-459.74 360.5,-474 371.05,-480.43 383.71,-484.22 395.84,-486.43"/>
<polygon fill="#000000" fill-opacity="0.200000" stroke="#000000" stroke-width="2" stroke-opacity="0.200000" points="395.3,-488.47 401.55,-487.31 395.94,-484.32 395.3,-488.47"/>
</g>
<!-- src/Presentation/TicTacToeView.tsx&#45;&gt;src/Presentation/JumpToStepButtons.tsx -->
<g id="edge32" class="edge">
<title>src/Presentation/TicTacToeView.tsx&#45;&gt;src/Presentation/JumpToStepButtons.tsx</title>
<path fill="none" stroke="#000000" stroke-width="2" stroke-opacity="0.200000" d="M310.6,-416.24C315.56,-435.85 329.96,-481.67 360.5,-504 365.63,-507.75 371.42,-510.65 377.48,-512.88"/>
<polygon fill="#000000" fill-opacity="0.200000" stroke="#000000" stroke-width="2" stroke-opacity="0.200000" points="376.65,-514.82 383,-514.61 377.91,-510.81 376.65,-514.82"/>
</g>
<!-- src/Presentation/TicTacToeView.tsx&#45;&gt;src/Presentation/StatusView.tsx -->
<g id="edge33" class="edge">
<title>src/Presentation/TicTacToeView.tsx&#45;&gt;src/Presentation/StatusView.tsx</title>
<path fill="none" stroke="#000000" stroke-width="2" stroke-opacity="0.200000" d="M318.38,-416.41C328.24,-425.24 344.24,-438.09 360.5,-445 371.42,-449.64 383.81,-452.74 395.53,-454.82"/>
<polygon fill="#000000" fill-opacity="0.200000" stroke="#000000" stroke-width="2" stroke-opacity="0.200000" points="395.08,-456.87 401.34,-455.74 395.74,-452.72 395.08,-456.87"/>
</g>
<!-- src/Presentation/hook/useTicTacToeModelController.ts -->
<g id="node21" class="node">
<title>src/Presentation/hook/useTicTacToeModelController.ts</title>
<g id="a_node21"><a xlink:href="src/Presentation/hook/useTicTacToeModelController.ts" xlink:title="useTicTacToeModelController.ts">
<path fill="#ddfeff" stroke="black" d="M509.5,-416C509.5,-416 374.5,-416 374.5,-416 371.5,-416 368.5,-413 368.5,-410 368.5,-410 368.5,-404 368.5,-404 368.5,-401 371.5,-398 374.5,-398 374.5,-398 509.5,-398 509.5,-398 512.5,-398 515.5,-401 515.5,-404 515.5,-404 515.5,-410 515.5,-410 515.5,-413 512.5,-416 509.5,-416"/>
<text text-anchor="start" x="376.5" y="-404.8" font-family="Helvetica,sans-Serif" font-size="9.00">useTicTacToeModelController.ts</text>
</a>
</g>
</g>
<!-- src/Presentation/TicTacToeView.tsx&#45;&gt;src/Presentation/hook/useTicTacToeModelController.ts -->
<g id="edge31" class="edge">
<title>src/Presentation/TicTacToeView.tsx&#45;&gt;src/Presentation/hook/useTicTacToeModelController.ts</title>
<path fill="none" stroke="#000000" stroke-width="2" stroke-opacity="0.200000" d="M352.99,-407C355.16,-407 357.37,-407 359.6,-407"/>
<polygon fill="#000000" fill-opacity="0.200000" stroke="#000000" stroke-width="2" stroke-opacity="0.200000" points="359.27,-409.1 365.27,-407 359.27,-404.9 359.27,-409.1"/>
</g>
<!-- src/Presentation/hook/useTicTacToeModelController.ts&#45;&gt;src/Domain/Repository/index.ts -->
<g id="edge34" class="edge">
<title>src/Presentation/hook/useTicTacToeModelController.ts&#45;&gt;src/Domain/Repository/index.ts</title>
<path fill="none" stroke="#000000" stroke-width="2" stroke-opacity="0.200000" d="M458.37,-397.53C475.56,-387.39 504.52,-371.59 531.5,-363 632.66,-330.77 663.61,-347.86 767.5,-326 772.13,-325.03 776.97,-323.89 781.74,-322.7"/>
<polygon fill="#000000" fill-opacity="0.200000" stroke="#000000" stroke-width="2" stroke-opacity="0.200000" points="781.96,-324.81 787.24,-321.28 780.91,-320.74 781.96,-324.81"/>
</g>
<!-- src/Presentation/hook/useTicTacToeModelController.ts&#45;&gt;src/Domain/UseCase/index.ts -->
<g id="edge35" class="edge">
<title>src/Presentation/hook/useTicTacToeModelController.ts&#45;&gt;src/Domain/UseCase/index.ts</title>
<path fill="none" stroke="#000000" stroke-width="2" stroke-opacity="0.200000" d="M450.77,-397.83C472.3,-372.42 532.9,-300.91 560.05,-268.87"/>
<polygon fill="#000000" fill-opacity="0.200000" stroke="#000000" stroke-width="2" stroke-opacity="0.200000" points="561.37,-270.56 563.65,-264.63 558.17,-267.85 561.37,-270.56"/>
</g>
<!-- src/index.css -->
<g id="node22" class="node">
<title>src/index.css</title>
<g id="a_node22"><a xlink:href="src/index.css" xlink:title="index.css">
<path fill="#ffffcc" stroke="black" d="M170.5,-94C170.5,-94 127.5,-94 127.5,-94 124.5,-94 121.5,-91 121.5,-88 121.5,-88 121.5,-82 121.5,-82 121.5,-79 124.5,-76 127.5,-76 127.5,-76 170.5,-76 170.5,-76 173.5,-76 176.5,-79 176.5,-82 176.5,-82 176.5,-88 176.5,-88 176.5,-91 173.5,-94 170.5,-94"/>
<text text-anchor="start" x="129.5" y="-82.8" font-family="Helvetica,sans-Serif" font-size="9.00">index.css</text>
</a>
</g>
</g>
<!-- src/index.tsx -->
<g id="node23" class="node">
<title>src/index.tsx</title>
<g id="a_node23"><a xlink:href="src/index.tsx" xlink:title="index.tsx">
<path fill="#bbfeff" stroke="black" d="M82,-94C82,-94 40,-94 40,-94 37,-94 34,-91 34,-88 34,-88 34,-82 34,-82 34,-79 37,-76 40,-76 40,-76 82,-76 82,-76 85,-76 88,-79 88,-82 88,-82 88,-88 88,-88 88,-91 85,-94 82,-94"/>
<text text-anchor="start" x="42.5" y="-82.8" font-family="Helvetica,sans-Serif" font-size="9.00">index.tsx</text>
</a>
</g>
</g>
<!-- src/index.tsx&#45;&gt;src/Main/App.tsx -->
<g id="edge38" class="edge">
<title>src/index.tsx&#45;&gt;src/Main/App.tsx</title>
<path fill="none" stroke="#000000" stroke-width="2" stroke-opacity="0.200000" d="M88.43,-80.3C94.84,-78.08 101.22,-74.81 106,-70 113.92,-62.02 106.22,-54.12 114,-46 114.14,-45.86 114.27,-45.72 114.41,-45.58"/>
<polygon fill="#000000" fill-opacity="0.200000" stroke="#000000" stroke-width="2" stroke-opacity="0.200000" points="115.6,-47.31 119.19,-42.07 113.11,-43.93 115.6,-47.31"/>
</g>
<!-- src/index.tsx&#45;&gt;src/index.css -->
<g id="edge37" class="edge">
<title>src/index.tsx&#45;&gt;src/index.css</title>
<path fill="none" stroke="#000000" stroke-width="2" stroke-opacity="0.200000" d="M88.27,-85C95.88,-85 104.32,-85 112.39,-85"/>
<polygon fill="#000000" fill-opacity="0.200000" stroke="#000000" stroke-width="2" stroke-opacity="0.200000" points="112.27,-87.1 118.27,-85 112.27,-82.9 112.27,-87.1"/>
</g>
<!-- src/react&#45;app&#45;env.d.ts -->
<g id="node24" class="node">
<title>src/react&#45;app&#45;env.d.ts</title>
<g id="a_node24"><a xlink:href="src/react-app-env.d.ts" xlink:title="react&#45;app&#45;env.d.ts">
<path fill="#ccffcc" stroke="black" d="M100,-64C100,-64 22,-64 22,-64 19,-64 16,-61 16,-58 16,-58 16,-52 16,-52 16,-49 19,-46 22,-46 22,-46 100,-46 100,-46 103,-46 106,-49 106,-52 106,-52 106,-58 106,-58 106,-61 103,-64 100,-64"/>
<text text-anchor="start" x="24" y="-52.8" font-family="Helvetica,sans-Serif" font-size="9.00">react&#45;app&#45;env.d.ts</text>
</a>
</g>
</g>
<!-- src/setupTests.ts -->
<g id="node25" class="node">
<title>src/setupTests.ts</title>
<g id="a_node25"><a xlink:href="src/setupTests.ts" xlink:title="no&#45;orphans">
<path fill="#ccffcc" stroke="orange" d="M89.5,-34C89.5,-34 32.5,-34 32.5,-34 29.5,-34 26.5,-31 26.5,-28 26.5,-28 26.5,-22 26.5,-22 26.5,-19 29.5,-16 32.5,-16 32.5,-16 89.5,-16 89.5,-16 92.5,-16 95.5,-19 95.5,-22 95.5,-22 95.5,-28 95.5,-28 95.5,-31 92.5,-34 89.5,-34"/>
<text text-anchor="start" x="34.5" y="-22.8" font-family="Helvetica,sans-Serif" font-size="9.00" fill="orange">setupTests.ts</text>
</a>
</g>
</g>
</g>
</svg>
